<?xml version="1.0" encoding="UTF-8" standalone="no" ?>
<!DOCTYPE svg PUBLIC "-//W3C//DTD SVG 1.1//EN" "http://www.w3.org/Graphics/SVG/1.1/DTD/svg11.dtd">
<svg xmlns="http://www.w3.org/2000/svg" xmlns:xlink="http://www.w3.org/1999/xlink" version="1.1" width="1080" height="1080" viewBox="0 0 1080 1080" xml:space="preserve">
<desc>Created with Fabric.js 5.2.4</desc>
<defs>
</defs>
<rect x="0" y="0" width="100%" height="100%" fill="transparent"></rect>
<g transform="matrix(1 0 0 1 540 540)" id="7a1597f7-75ef-4970-885f-0adc5dd7dd14"  >
<rect style="stroke: none; stroke-width: 1; stroke-dasharray: none; stroke-linecap: butt; stroke-dashoffset: 0; stroke-linejoin: miter; stroke-miterlimit: 4; fill: rgb(255,255,255); fill-rule: nonzero; opacity: 1; visibility: hidden;" vector-effect="non-scaling-stroke"  x="-540" y="-540" rx="0" ry="0" width="1080" height="1080" />
</g>
<g transform="matrix(1 0 0 1 540 540)" id="1374294a-2cc9-47ec-8da7-71a32e6404b1"  >
</g>
<g transform="matrix(1 0 0 1 540 555.49)"  >
<g style="" vector-effect="non-scaling-stroke"   >
		<g transform="matrix(1.59 0 0 1.59 0.02 -93.54)"  >
<path style="stroke: none; stroke-width: 1; stroke-dasharray: none; stroke-linecap: butt; stroke-dashoffset: 0; stroke-linejoin: miter; stroke-miterlimit: 4; fill: rgb(30,68,5); fill-rule: nonzero; opacity: 1;" vector-effect="non-scaling-stroke"  transform=" translate(-252.07, -193.12)" d="M 126.74 166.873 C 123.93599999999999 170.851 122.26599999999999 175.664 122.26599999999999 180.894 C 122.26599999999999 190.01500000000001 127.323 197.877 134.73499999999999 202.07500000000002 C 136.492 212.57500000000002 143.47099999999998 221.287 152.94599999999997 225.43 C 151.83499999999998 227.21 151.14199999999997 229.31300000000002 151.14199999999997 231.574 C 151.14199999999997 237.94600000000003 156.31699999999998 243.122 162.70499999999996 243.122 C 164.67399999999995 243.122 166.50999999999996 242.586 168.13999999999996 241.704 C 171.98399999999995 246.32 177.13499999999996 249.77800000000002 183.01999999999995 251.566 C 184.55599999999995 263.578 194.70899999999995 272.905 207.13899999999995 272.905 C 211.35299999999995 272.905 215.24399999999994 271.739 218.69399999999996 269.87199999999996 C 222.95499999999996 272.085 227.79999999999995 273.34599999999995 232.92799999999997 273.34599999999995 C 240.15099999999998 273.34599999999995 246.77599999999998 270.87299999999993 252.05299999999997 266.7289999999999 C 257.33099999999996 270.8639999999999 263.96299999999997 273.34599999999995 271.178 273.34599999999995 C 276.306 273.34599999999995 281.15 272.08599999999996 285.412 269.87199999999996 C 288.86199999999997 271.73099999999994 292.769 272.905 296.96 272.905 C 309.39 272.905 319.551 263.57899999999995 321.087 251.56599999999997 C 326.979 249.77799999999996 332.123 246.31999999999996 335.967 241.70399999999998 C 337.613 242.57799999999997 339.433 243.12199999999999 341.402 243.12199999999999 C 347.798 243.12199999999999 352.965 237.94699999999997 352.965 231.57399999999998 C 352.965 229.313 352.28799999999995 227.202 351.161 225.42999999999998 C 360.637 221.295 367.64 212.575 369.388 202.075 C 376.792 197.87699999999998 381.849 190.015 381.849 180.89399999999998 C 381.849 175.664 380.179 170.85099999999997 377.383 166.873 C 380.83299999999997 164.864 383.188 161.178 383.188 156.90099999999998 C 383.188 150.51299999999998 378.021 145.338 371.633 145.338 C 371.373 145.338 371.137 145.409 370.885 145.417 C 369.404 133.665 359.65999999999997 124.527 347.609 124.094 C 345.561 120.84899999999999 341.969 118.675 337.84999999999997 118.675 C 336.015 118.675 334.28999999999996 119.148 332.75399999999996 119.92 C 328.335 115.58 322.30899999999997 112.894 315.62999999999994 112.894 C 304.3739999999999 112.894 294.98499999999996 120.55000000000001 292.1569999999999 130.909 C 291.38499999999993 130.82999999999998 290.6449999999999 130.673 289.84899999999993 130.673 C 286.6189999999999 130.673 283.55499999999995 131.335 280.7509999999999 132.469 C 276.7729999999999 129.673 271.9599999999999 128.011 266.73799999999994 128.011 C 261.20799999999997 128.011 256.15899999999993 129.917 252.07099999999994 133.013 C 247.97499999999994 129.917 242.93399999999994 128.011 237.39599999999993 128.011 C 232.18899999999994 128.011 227.36099999999993 129.673 223.39899999999994 132.469 C 220.57899999999995 131.335 217.52299999999994 130.673 214.29299999999995 130.673 C 213.50499999999994 130.673 212.76499999999996 130.838 212.00099999999995 130.909 C 209.15699999999995 120.55099999999999 199.78399999999993 112.89399999999999 188.51999999999995 112.89399999999999 C 181.84799999999996 112.89399999999999 175.82199999999995 115.57999999999998 171.39599999999996 119.91999999999999 C 169.85999999999996 119.13999999999999 168.13499999999996 118.67499999999998 166.29999999999995 118.67499999999998 C 162.17199999999997 118.67499999999998 158.58799999999997 120.84899999999999 156.53299999999996 124.09399999999998 C 144.48899999999995 124.52699999999999 134.73799999999994 133.664 133.25699999999995 145.41699999999997 C 133.01299999999995 145.40899999999996 132.76899999999995 145.33799999999997 132.51699999999994 145.33799999999997 C 126.13699999999994 145.33799999999997 120.96199999999993 150.51299999999998 120.96199999999993 156.90099999999995 C 120.934 161.178 123.282 164.864 126.74 166.873 z" stroke-linecap="round" />
</g>
		<g transform="matrix(1.59 0 0 1.59 3.35 -44.74)"  >
<path style="stroke: none; stroke-width: 1; stroke-dasharray: none; stroke-linecap: butt; stroke-dashoffset: 0; stroke-linejoin: miter; stroke-miterlimit: 4; fill: rgb(42,102,2); fill-rule: nonzero; opacity: 1;" vector-effect="non-scaling-stroke"  transform=" translate(-254.17, -223.87)" d="M 280.56 258.418 C 280.56 272.99 268.745 275.897 254.172 275.897 C 239.599 275.897 227.784 272.99 227.784 258.43399999999997 C 227.784 243.86199999999997 239.599 171.85899999999998 254.172 171.84299999999996 C 268.745 171.835 280.56 243.854 280.56 258.418 z" stroke-linecap="round" />
</g>
		<g transform="matrix(1.59 0 0 1.59 -0.01 200.56)"  >
<path style="stroke: none; stroke-width: 1; stroke-dasharray: none; stroke-linecap: butt; stroke-dashoffset: 0; stroke-linejoin: miter; stroke-miterlimit: 4; fill: rgb(81,178,36); fill-rule: nonzero; opacity: 1;" vector-effect="non-scaling-stroke"  transform=" translate(-252.05, -378.45)" d="M 315.794 461.942 C 315.794 497.128 287.256 504.123 252.05399999999997 504.123 C 216.85199999999998 504.123 188.31399999999996 497.12 188.31399999999996 461.942 C 188.31399999999996 426.74 216.85199999999998 252.77 252.05399999999997 252.77 C 287.256 252.77 315.794 426.74 315.794 461.942 z" stroke-linecap="round" />
</g>
		<g transform="matrix(1.59 0 0 1.59 50.56 200.56)"  >
<path style="stroke: none; stroke-width: 1; stroke-dasharray: none; stroke-linecap: butt; stroke-dashoffset: 0; stroke-linejoin: miter; stroke-miterlimit: 4; fill: rgb(62,147,17); fill-rule: nonzero; opacity: 1;" vector-effect="non-scaling-stroke"  transform=" translate(-283.92, -378.45)" d="M 252.054 252.77 C 287.256 252.77 315.794 426.74 315.794 461.942 C 315.794 497.128 287.256 504.123 252.05399999999997 504.123" stroke-linecap="round" />
</g>
		<g transform="matrix(1.59 0 0 1.59 -68.74 43.58)"  >
<path style="stroke: none; stroke-width: 1; stroke-dasharray: none; stroke-linecap: butt; stroke-dashoffset: 0; stroke-linejoin: miter; stroke-miterlimit: 4; fill: rgb(81,178,36); fill-rule: nonzero; opacity: 1;" vector-effect="non-scaling-stroke"  transform=" translate(-208.74, -279.52)" d="M 255.842 280.505 C 268.563 293.242 260.789 306.105 248.05200000000002 318.826 C 235.32300000000004 331.547 222.46800000000002 339.345 209.747 326.624 C 197.01000000000002 313.887 144.40000000000003 240.64000000000004 157.121 227.91000000000003 C 169.858 215.174 243.105 267.784 255.842 280.505 z" stroke-linecap="round" />
</g>
		<g transform="matrix(1.59 0 0 1.59 -67.18 32.26)"  >
<path style="stroke: none; stroke-width: 1; stroke-dasharray: none; stroke-linecap: butt; stroke-dashoffset: 0; stroke-linejoin: miter; stroke-miterlimit: 4; fill: rgb(62,147,17); fill-rule: nonzero; opacity: 1;" vector-effect="non-scaling-stroke"  transform=" translate(-209.73, -272.39)" d="M 157.121 227.919 C 169.858 215.18200000000002 243.10500000000002 267.79200000000003 255.842 280.51300000000003 C 268.563 293.25000000000006 260.789 306.11300000000006 248.05200000000002 318.83400000000006" stroke-linecap="round" />
</g>
		<g transform="matrix(1.59 0 0 1.59 68.71 43.58)"  >
<path style="stroke: none; stroke-width: 1; stroke-dasharray: none; stroke-linecap: butt; stroke-dashoffset: 0; stroke-linejoin: miter; stroke-miterlimit: 4; fill: rgb(81,178,36); fill-rule: nonzero; opacity: 1;" vector-effect="non-scaling-stroke"  transform=" translate(-295.36, -279.52)" d="M 248.265 280.505 C 235.536 293.242 243.326 306.105 256.055 318.826 C 268.784 331.547 281.639 339.345 294.36 326.624 C 307.09700000000004 313.887 359.699 240.64000000000004 346.978 227.91000000000003 C 334.249 215.174 260.994 267.784 248.265 280.505 z" stroke-linecap="round" />
</g>
		<g transform="matrix(1.59 0 0 1.59 67.15 32.26)"  >
<path style="stroke: none; stroke-width: 1; stroke-dasharray: none; stroke-linecap: butt; stroke-dashoffset: 0; stroke-linejoin: miter; stroke-miterlimit: 4; fill: rgb(62,147,17); fill-rule: nonzero; opacity: 1;" vector-effect="non-scaling-stroke"  transform=" translate(-294.37, -272.39)" d="M 346.978 227.919 C 334.249 215.18200000000002 260.994 267.79200000000003 248.264 280.51300000000003 C 235.53500000000003 293.25000000000006 243.32500000000002 306.11300000000006 256.05400000000003 318.83400000000006" stroke-linecap="round" />
</g>
		<g transform="matrix(1.59 0 0 1.59 0 -196.62)"  >
<path style="stroke: none; stroke-width: 1; stroke-dasharray: none; stroke-linecap: butt; stroke-dashoffset: 0; stroke-linejoin: miter; stroke-miterlimit: 4; fill: rgb(47,112,5); fill-rule: nonzero; opacity: 1;" vector-effect="non-scaling-stroke"  transform=" translate(-252.06, -128.16)" d="M 452.23 170.102 C 456.704 163.75300000000001 459.374 156.065 459.374 147.692 C 459.374 133.12 451.3 120.56400000000001 439.46900000000005 113.85300000000001 C 436.65700000000004 97.08300000000001 425.49500000000006 83.165 410.34800000000007 76.56400000000001 C 412.15200000000004 73.72000000000001 413.23100000000005 70.36500000000001 413.23100000000005 66.74900000000001 C 413.23100000000005 56.55600000000001 404.9680000000001 48.293000000000006 394.77500000000003 48.293000000000006 C 391.624 48.293000000000006 388.694 49.15200000000001 386.079 50.55400000000001 C 379.943 43.19700000000001 371.72700000000003 37.644000000000005 362.306 34.80000000000001 C 359.84799999999996 15.60400000000001 343.62199999999996 0.7240000000000109 323.748 0.7240000000000109 C 317.045 0.7240000000000109 310.83 2.567000000000011 305.324 5.545000000000011 C 298.512 2.024 290.792 0 282.6 0 C 271.06800000000004 0 260.482 3.962 252.05300000000003 10.555 C 243.618 3.962 233.039 0 221.507 0 C 213.315 0 205.588 2.024 198.774 5.545 C 193.26 2.568 187.04500000000002 0.7240000000000002 180.334 0.7240000000000002 C 160.476 0.7240000000000002 144.25 15.611 141.784 34.8 C 132.379 37.644 124.148 43.196999999999996 118.011 50.553999999999995 C 115.396 49.151999999999994 112.47399999999999 48.29299999999999 109.315 48.29299999999999 C 99.114 48.29299999999999 90.851 56.55599999999999 90.851 66.749 C 90.851 70.365 91.938 73.72 93.742 76.564 C 78.595 83.17299999999999 67.433 97.083 64.62100000000001 113.853 C 52.80600000000001 120.564 44.73200000000001 133.12 44.73200000000001 147.692 C 44.73200000000001 156.05700000000002 47.402000000000015 163.75300000000001 51.868000000000016 170.102 C 46.35400000000001 173.3 42.597000000000016 179.20000000000002 42.597000000000016 186.029 C 42.597000000000016 196.222 50.860000000000014 204.48499999999999 61.05300000000001 204.48499999999999 C 61.45500000000001 204.48499999999999 61.84100000000001 204.38299999999998 62.235000000000014 204.367 C 64.60600000000001 223.153 80.16300000000001 237.73399999999998 99.42200000000001 238.41899999999998 C 102.69900000000001 243.60999999999999 108.433 247.08399999999997 115.01 247.08399999999997 C 117.956 247.08399999999997 120.70500000000001 246.33599999999998 123.155 245.10699999999997 C 130.213 252.03099999999998 139.854 256.32399999999996 150.512 256.32399999999996 C 168.495 256.32399999999996 183.493 244.09899999999996 188.022 227.54999999999995 C 189.251 227.66799999999995 190.44799999999998 227.92799999999994 191.708 227.92799999999994 C 196.852 227.92799999999994 201.73499999999999 226.87199999999993 206.24099999999999 225.06899999999993 C 212.582 229.52699999999993 220.278 232.18999999999994 228.62699999999998 232.18999999999994 C 237.46499999999997 232.18999999999994 245.52299999999997 229.14999999999995 252.06099999999998 224.19499999999994 C 258.599 229.14999999999995 266.649 232.18999999999994 275.495 232.18999999999994 C 283.837 232.18999999999994 291.54 229.52799999999993 297.88100000000003 225.06899999999993 C 302.37100000000004 226.87299999999993 307.26200000000006 227.92799999999994 312.422 227.92799999999994 C 313.66700000000003 227.92799999999994 314.88000000000005 227.66799999999995 316.101 227.54999999999995 C 320.622 244.10699999999994 335.628 256.32399999999996 353.611 256.32399999999996 C 364.268 256.32399999999996 373.902 252.03099999999995 380.96 245.10699999999994 C 383.42499999999995 246.33599999999996 386.167 247.08399999999995 389.113 247.08399999999995 C 395.706 247.08399999999995 401.425 243.61799999999994 404.701 238.41899999999995 C 423.944 237.73399999999995 439.51700000000005 223.15399999999994 441.88 204.36699999999996 C 442.282 204.38299999999995 442.668 204.48499999999996 443.069 204.48499999999996 C 453.262 204.48499999999996 461.52500000000003 196.22199999999995 461.52500000000003 186.02899999999997 C 461.509 179.2 457.752 173.3 452.23 170.102 z" stroke-linecap="round" />
</g>
		<g transform="matrix(1.59 0 0 1.59 -0.01 -256.33)"  >
<path style="stroke: none; stroke-width: 1; stroke-dasharray: none; stroke-linecap: butt; stroke-dashoffset: 0; stroke-linejoin: miter; stroke-miterlimit: 4; fill: rgb(58,135,8); fill-rule: nonzero; opacity: 1;" vector-effect="non-scaling-stroke"  transform=" translate(-252.05, -90.53)" d="M 62.236 129.111 C 64.607 147.897 80.164 162.486 99.423 163.16299999999998 C 102.7 168.35399999999998 108.434 171.82799999999997 115.011 171.82799999999997 C 117.957 171.82799999999997 120.70599999999999 171.07999999999998 123.15599999999999 169.85099999999997 C 130.214 176.77499999999998 139.855 181.06799999999998 150.51299999999998 181.06799999999998 C 168.49599999999998 181.06799999999998 183.49399999999997 168.843 188.02299999999997 152.29399999999998 C 189.25199999999998 152.42 190.44899999999996 152.67199999999997 191.70899999999997 152.67199999999997 C 196.85299999999998 152.67199999999997 201.73599999999996 151.61599999999996 206.24199999999996 149.81299999999996 C 212.58299999999997 154.27099999999996 220.27899999999997 156.93399999999997 228.62799999999996 156.93399999999997 C 237.46599999999995 156.93399999999997 245.52399999999994 153.89399999999998 252.06199999999995 148.94699999999997 C 258.59999999999997 153.89399999999998 266.65 156.93399999999997 275.496 156.93399999999997 C 283.83799999999997 156.93399999999997 291.541 154.27199999999996 297.882 149.81299999999996 C 302.372 151.61699999999996 307.26300000000003 152.67199999999997 312.423 152.67199999999997 C 313.668 152.67199999999997 314.88100000000003 152.41999999999996 316.102 152.29399999999998 C 320.623 168.85099999999997 335.62899999999996 181.06799999999998 353.61199999999997 181.06799999999998 C 364.26899999999995 181.06799999999998 373.90299999999996 176.77499999999998 380.96099999999996 169.85099999999997 C 383.42599999999993 171.07999999999998 386.16799999999995 171.82799999999997 389.114 171.82799999999997 C 395.707 171.82799999999997 401.426 168.36199999999997 404.702 163.16299999999998 C 423.945 162.486 439.51800000000003 147.89799999999997 441.881 129.111 C 442.28299999999996 129.12699999999998 442.669 129.22899999999998 443.07 129.22899999999998 C 446.67 129.22899999999998 450.017 128.158 452.853 126.36999999999999 C 449.434 121.24199999999999 444.874 116.92599999999999 439.486 113.86099999999999 C 436.674 97.091 425.512 83.17299999999999 410.365 76.57199999999999 C 412.169 73.728 413.248 70.37299999999999 413.248 66.75699999999999 C 413.248 56.56399999999999 404.985 48.30099999999999 394.792 48.30099999999999 C 391.64099999999996 48.30099999999999 388.71099999999996 49.15999999999999 386.09599999999995 50.56199999999999 C 379.9599999999999 43.20499999999999 371.74399999999997 37.65199999999999 362.3229999999999 34.80799999999999 C 359.8649999999999 15.611999999999991 343.6389999999999 0.7319999999999922 323.76499999999993 0.7319999999999922 C 317.06199999999995 0.7319999999999922 310.8469999999999 2.574999999999992 305.34099999999995 5.552999999999992 C 298.512 2.024 290.792 0 282.6 0 C 271.06800000000004 0 260.482 3.962 252.05300000000003 10.555 C 243.618 3.962 233.039 0 221.507 0 C 213.315 0 205.588 2.024 198.774 5.545 C 193.26 2.568 187.04500000000002 0.7240000000000002 180.334 0.7240000000000002 C 160.476 0.7240000000000002 144.25 15.611 141.784 34.8 C 132.379 37.644 124.148 43.196999999999996 118.011 50.553999999999995 C 115.396 49.151999999999994 112.47399999999999 48.29299999999999 109.315 48.29299999999999 C 99.114 48.29299999999999 90.851 56.55599999999999 90.851 66.749 C 90.851 70.365 91.938 73.72 93.742 76.564 C 78.595 83.17299999999999 67.433 97.083 64.62100000000001 113.853 C 59.22500000000001 116.917 54.665000000000006 121.234 51.254000000000005 126.362 C 54.08200000000001 128.158 57.437000000000005 129.221 61.037000000000006 129.221 C 61.456 129.221 61.842 129.126 62.236 129.111 z" stroke-linecap="round" />
</g>
		<g transform="matrix(1.59 0 0 1.59 -86.41 -311.46)"  >
<path style="stroke: none; stroke-width: 1; stroke-dasharray: none; stroke-linecap: butt; stroke-dashoffset: 0; stroke-linejoin: miter; stroke-miterlimit: 4; fill: rgb(74,155,22); fill-rule: nonzero; opacity: 1;" vector-effect="non-scaling-stroke"  transform=" translate(-197.61, -55.79)" d="M 219.057 51.042 C 220.774 56.721000000000004 210.30599999999998 56.682 198.475 60.219 C 186.644 63.756 177.908 69.537 176.19899999999998 63.858000000000004 C 174.51299999999998 58.179 182.72899999999998 50.711000000000006 194.56799999999998 47.175000000000004 C 206.391 43.638 217.356 45.371 219.057 51.042 z" stroke-linecap="round" />
</g>
		<g transform="matrix(1.59 0 0 1.59 -231.69 -248.24)"  >
<path style="stroke: none; stroke-width: 1; stroke-dasharray: none; stroke-linecap: butt; stroke-dashoffset: 0; stroke-linejoin: miter; stroke-miterlimit: 4; fill: rgb(74,155,22); fill-rule: nonzero; opacity: 1;" vector-effect="non-scaling-stroke"  transform=" translate(-106.06, -95.63)" d="M 121.313 92.247 C 122.534 96.304 115.098 96.272 106.678 98.777 C 98.258 101.305 92.027 105.417 90.83 101.376 C 89.617 97.327 95.477 92.018 103.898 89.49000000000001 C 112.317 86.977 120.115 88.206 121.313 92.247 z" stroke-linecap="round" />
</g>
		<g transform="matrix(1.59 0 0 1.59 -168.14 -298.74)"  >
<path style="stroke: none; stroke-width: 1; stroke-dasharray: none; stroke-linecap: butt; stroke-dashoffset: 0; stroke-linejoin: miter; stroke-miterlimit: 4; fill: rgb(74,155,22); fill-rule: nonzero; opacity: 1;" vector-effect="non-scaling-stroke"  transform=" translate(-146.11, -63.81)" d="M 160.374 57.336 C 162.28 61.109 154.95499999999998 62.393 147.10899999999998 66.347 C 139.25599999999997 70.317 133.85999999999999 75.45299999999999 131.95399999999998 71.68799999999999 C 130.04799999999997 67.91499999999999 134.87599999999998 61.66899999999999 142.73 57.698999999999984 C 150.575 53.736 158.468 53.579 160.374 57.336 z" stroke-linecap="round" />
</g>
		<g transform="matrix(1.59 0 0 1.59 -45.74 -358.29)"  >
<path style="stroke: none; stroke-width: 1; stroke-dasharray: none; stroke-linecap: butt; stroke-dashoffset: 0; stroke-linejoin: miter; stroke-miterlimit: 4; fill: rgb(74,155,22); fill-rule: nonzero; opacity: 1;" vector-effect="non-scaling-stroke"  transform=" translate(-223.24, -26.28)" d="M 239.143 27.932 C 239.308 32.153999999999996 232.109 30.279 223.342 30.625999999999998 C 214.55900000000003 30.996 207.502 33.43 207.336 29.208 C 207.17100000000002 24.994 214.157 21.299999999999997 222.94 20.936999999999998 C 231.715 20.59 238.978 23.717 239.143 27.932 z" stroke-linecap="round" />
</g>
		<g transform="matrix(1.59 0 0 1.59 -115.22 -367.51)"  >
<path style="stroke: none; stroke-width: 1; stroke-dasharray: none; stroke-linecap: butt; stroke-dashoffset: 0; stroke-linejoin: miter; stroke-miterlimit: 4; fill: rgb(74,155,22); fill-rule: nonzero; opacity: 1;" vector-effect="non-scaling-stroke"  transform=" translate(-179.45, -20.47)" d="M 193.851 14.328 C 195.671 18.14 188.314 19.275 180.413 23.064 C 172.473 26.876 166.983 31.918 165.14800000000002 28.105 C 163.336 24.3 168.28300000000002 18.141 176.19100000000003 14.328000000000001 C 184.123 10.539 192.032 10.531 193.851 14.328 z" stroke-linecap="round" />
</g>
		<g transform="matrix(1.59 0 0 1.59 -144.31 -328.44)"  >
<circle style="stroke: none; stroke-width: 1; stroke-dasharray: none; stroke-linecap: butt; stroke-dashoffset: 0; stroke-linejoin: miter; stroke-miterlimit: 4; fill: rgb(74,155,22); fill-rule: nonzero; opacity: 1;" vector-effect="non-scaling-stroke"  cx="0" cy="0" r="4.616" />
</g>
		<g transform="matrix(1.59 0 0 1.59 -215.87 -294.08)"  >
<circle style="stroke: none; stroke-width: 1; stroke-dasharray: none; stroke-linecap: butt; stroke-dashoffset: 0; stroke-linejoin: miter; stroke-miterlimit: 4; fill: rgb(74,155,22); fill-rule: nonzero; opacity: 1;" vector-effect="non-scaling-stroke"  cx="0" cy="0" r="3.545" />
</g>
		<g transform="matrix(1.59 0 0 1.59 -245.72 -207.89)"  >
<circle style="stroke: none; stroke-width: 1; stroke-dasharray: none; stroke-linecap: butt; stroke-dashoffset: 0; stroke-linejoin: miter; stroke-miterlimit: 4; fill: rgb(74,155,22); fill-rule: nonzero; opacity: 1;" vector-effect="non-scaling-stroke"  cx="0" cy="0" r="6.034" />
</g>
		<g transform="matrix(1.59 0 0 1.59 -152.2 -261.97)"  >
<circle style="stroke: none; stroke-width: 1; stroke-dasharray: none; stroke-linecap: butt; stroke-dashoffset: 0; stroke-linejoin: miter; stroke-miterlimit: 4; fill: rgb(74,155,22); fill-rule: nonzero; opacity: 1;" vector-effect="non-scaling-stroke"  cx="0" cy="0" r="4.608" />
</g>
		<g transform="matrix(1.59 0 0 1.59 -27.64 -381.96)"  >
<circle style="stroke: none; stroke-width: 1; stroke-dasharray: none; stroke-linecap: butt; stroke-dashoffset: 0; stroke-linejoin: miter; stroke-miterlimit: 4; fill: rgb(74,155,22); fill-rule: nonzero; opacity: 1;" vector-effect="non-scaling-stroke"  cx="0" cy="0" r="2.135" />
</g>
		<g transform="matrix(1.59 0 0 1.59 -93.64 -346.47)"  >
<circle style="stroke: none; stroke-width: 1; stroke-dasharray: none; stroke-linecap: butt; stroke-dashoffset: 0; stroke-linejoin: miter; stroke-miterlimit: 4; fill: rgb(74,155,22); fill-rule: nonzero; opacity: 1;" vector-effect="non-scaling-stroke"  cx="0" cy="0" r="3.907" />
</g>
		<g transform="matrix(1.59 0 0 1.59 -18.14 -312.66)"  >
<circle style="stroke: none; stroke-width: 1; stroke-dasharray: none; stroke-linecap: butt; stroke-dashoffset: 0; stroke-linejoin: miter; stroke-miterlimit: 4; fill: rgb(74,155,22); fill-rule: nonzero; opacity: 1;" vector-effect="non-scaling-stroke"  cx="0" cy="0" r="3.19" />
</g>
		<g transform="matrix(1.59 0 0 1.59 86.38 -311.46)"  >
<path style="stroke: none; stroke-width: 1; stroke-dasharray: none; stroke-linecap: butt; stroke-dashoffset: 0; stroke-linejoin: miter; stroke-miterlimit: 4; fill: rgb(74,155,22); fill-rule: nonzero; opacity: 1;" vector-effect="non-scaling-stroke"  transform=" translate(-306.49, -55.79)" d="M 285.05 51.042 C 283.325 56.721000000000004 293.801 56.682 305.632 60.219 C 317.463 63.756 326.199 69.537 327.9 63.858000000000004 C 329.594 58.179 321.378 50.711000000000006 309.539 47.175000000000004 C 297.716 43.638 286.752 45.371 285.05 51.042 z" stroke-linecap="round" />
</g>
		<g transform="matrix(1.59 0 0 1.59 231.66 -248.24)"  >
<path style="stroke: none; stroke-width: 1; stroke-dasharray: none; stroke-linecap: butt; stroke-dashoffset: 0; stroke-linejoin: miter; stroke-miterlimit: 4; fill: rgb(74,155,22); fill-rule: nonzero; opacity: 1;" vector-effect="non-scaling-stroke"  transform=" translate(-398.05, -95.63)" d="M 382.787 92.247 C 381.582 96.304 389.01 96.272 397.42999999999995 98.777 C 405.84999999999997 101.305 412.073 105.417 413.27099999999996 101.376 C 414.49199999999996 97.327 408.631 92.018 400.21099999999996 89.49000000000001 C 391.79 86.977 383.984 88.206 382.787 92.247 z" stroke-linecap="round" />
</g>
		<g transform="matrix(1.59 0 0 1.59 168.11 -298.74)"  >
<path style="stroke: none; stroke-width: 1; stroke-dasharray: none; stroke-linecap: butt; stroke-dashoffset: 0; stroke-linejoin: miter; stroke-miterlimit: 4; fill: rgb(74,155,22); fill-rule: nonzero; opacity: 1;" vector-effect="non-scaling-stroke"  transform=" translate(-357.99, -63.81)" d="M 343.733 57.336 C 341.819 61.109 349.152 62.393 356.998 66.347 C 364.859 70.317 370.247 75.45299999999999 372.145 71.68799999999999 C 374.05899999999997 67.91499999999999 369.231 61.66899999999999 361.37699999999995 57.698999999999984 C 353.532 53.736 345.632 53.579 343.733 57.336 z" stroke-linecap="round" />
</g>
		<g transform="matrix(1.59 0 0 1.59 45.72 -358.29)"  >
<path style="stroke: none; stroke-width: 1; stroke-dasharray: none; stroke-linecap: butt; stroke-dashoffset: 0; stroke-linejoin: miter; stroke-miterlimit: 4; fill: rgb(74,155,22); fill-rule: nonzero; opacity: 1;" vector-effect="non-scaling-stroke"  transform=" translate(-280.87, -26.28)" d="M 264.972 27.932 C 264.791 32.153999999999996 271.998 30.279 280.765 30.625999999999998 C 289.548 30.996 296.606 33.43 296.77099999999996 29.208 C 296.936 24.994 289.94999999999993 21.299999999999997 281.167 20.936999999999998 C 272.392 20.59 265.129 23.717 264.972 27.932 z" stroke-linecap="round" />
</g>
		<g transform="matrix(1.59 0 0 1.59 115.21 -367.51)"  >
<path style="stroke: none; stroke-width: 1; stroke-dasharray: none; stroke-linecap: butt; stroke-dashoffset: 0; stroke-linejoin: miter; stroke-miterlimit: 4; fill: rgb(74,155,22); fill-rule: nonzero; opacity: 1;" vector-effect="non-scaling-stroke"  transform=" translate(-324.66, -20.47)" d="M 310.272 14.328 C 308.445 18.14 315.794 19.275 323.694 23.064 C 331.634 26.876 337.11600000000004 31.918 338.959 28.105 C 340.786 24.3 335.832 18.141 327.916 14.328000000000001 C 319.984 10.539 312.068 10.531 310.272 14.328 z" stroke-linecap="round" />
</g>
		<g transform="matrix(1.59 0 0 1.59 144.24 -328.44)"  >
<circle style="stroke: none; stroke-width: 1; stroke-dasharray: none; stroke-linecap: butt; stroke-dashoffset: 0; stroke-linejoin: miter; stroke-miterlimit: 4; fill: rgb(74,155,22); fill-rule: nonzero; opacity: 1;" vector-effect="non-scaling-stroke"  cx="0" cy="0" r="4.616" />
</g>
		<g transform="matrix(1.59 0 0 1.59 215.85 -294.07)"  >
<path style="stroke: none; stroke-width: 1; stroke-dasharray: none; stroke-linecap: butt; stroke-dashoffset: 0; stroke-linejoin: miter; stroke-miterlimit: 4; fill: rgb(74,155,22); fill-rule: nonzero; opacity: 1;" vector-effect="non-scaling-stroke"  transform=" translate(-388.08, -66.75)" d="M 384.544 66.749 C 384.544 68.71 386.11199999999997 70.301 388.065 70.301 C 390.042 70.301 391.617 68.71000000000001 391.617 66.749 C 391.617 64.78799999999998 390.04200000000003 63.20399999999999 388.065 63.20399999999999 C 386.119 63.197 384.544 64.788 384.544 66.749 z" stroke-linecap="round" />
</g>
		<g transform="matrix(1.59 0 0 1.59 245.74 -207.89)"  >
<circle style="stroke: none; stroke-width: 1; stroke-dasharray: none; stroke-linecap: butt; stroke-dashoffset: 0; stroke-linejoin: miter; stroke-miterlimit: 4; fill: rgb(74,155,22); fill-rule: nonzero; opacity: 1;" vector-effect="non-scaling-stroke"  cx="0" cy="0" r="6.034" />
</g>
		<g transform="matrix(1.59 0 0 1.59 152.18 -261.97)"  >
<circle style="stroke: none; stroke-width: 1; stroke-dasharray: none; stroke-linecap: butt; stroke-dashoffset: 0; stroke-linejoin: miter; stroke-miterlimit: 4; fill: rgb(74,155,22); fill-rule: nonzero; opacity: 1;" vector-effect="non-scaling-stroke"  cx="0" cy="0" r="4.608" />
</g>
		<g transform="matrix(1.59 0 0 1.59 27.66 -381.96)"  >
<circle style="stroke: none; stroke-width: 1; stroke-dasharray: none; stroke-linecap: butt; stroke-dashoffset: 0; stroke-linejoin: miter; stroke-miterlimit: 4; fill: rgb(74,155,22); fill-rule: nonzero; opacity: 1;" vector-effect="non-scaling-stroke"  cx="0" cy="0" r="2.135" />
</g>
		<g transform="matrix(1.59 0 0 1.59 93.6 -346.47)"  >
<circle style="stroke: none; stroke-width: 1; stroke-dasharray: none; stroke-linecap: butt; stroke-dashoffset: 0; stroke-linejoin: miter; stroke-miterlimit: 4; fill: rgb(74,155,22); fill-rule: nonzero; opacity: 1;" vector-effect="non-scaling-stroke"  cx="0" cy="0" r="3.907" />
</g>
		<g transform="matrix(1.59 0 0 1.59 18.1 -312.66)"  >
<circle style="stroke: none; stroke-width: 1; stroke-dasharray: none; stroke-linecap: butt; stroke-dashoffset: 0; stroke-linejoin: miter; stroke-miterlimit: 4; fill: rgb(74,155,22); fill-rule: nonzero; opacity: 1;" vector-effect="non-scaling-stroke"  cx="0" cy="0" r="3.19" />
</g>
		<g transform="matrix(1.59 0 0 1.59 -0.01 107.5)"  >
<circle style="stroke: none; stroke-width: 1; stroke-dasharray: none; stroke-linecap: butt; stroke-dashoffset: 0; stroke-linejoin: miter; stroke-miterlimit: 4; fill: rgb(62,147,17); fill-rule: nonzero; opacity: 1;" vector-effect="non-scaling-stroke"  cx="0" cy="0" r="8.491" />
</g>
</g>
</g>
<g transform="matrix(2.1 0 0 2.74 544 610)" id="208ea825-2c95-48eb-8341-167bc4c3b8ab"  >
<circle style="stroke: rgb(0,0,0); stroke-width: 8; stroke-dasharray: none; stroke-linecap: butt; stroke-dashoffset: 0; stroke-linejoin: miter; stroke-miterlimit: 4; fill: rgb(255,0,0); fill-rule: nonzero; opacity: 1;" vector-effect="non-scaling-stroke"  cx="0" cy="0" r="35" />
</g>
<g transform="matrix(2.06 0 0 2.3 640.56 430.57)" id="957bc37b-8539-493e-a5ad-e3554ce89859"  >
<circle style="stroke: rgb(0,0,0); stroke-width: 7; stroke-dasharray: none; stroke-linecap: butt; stroke-dashoffset: 0; stroke-linejoin: miter; stroke-miterlimit: 4; fill: rgb(255,255,255); fill-rule: nonzero; opacity: 1;" vector-effect="non-scaling-stroke"  cx="0" cy="0" r="35" />
</g>
<g transform="matrix(0.44 0 0 0.44 637.83 428.56)" id="957bc37b-8539-493e-a5ad-e3554ce89859"  >
<circle style="stroke: rgb(255,255,255); stroke-width: 0; stroke-dasharray: none; stroke-linecap: butt; stroke-dashoffset: 0; stroke-linejoin: miter; stroke-miterlimit: 4; fill: rgb(0,0,0); fill-rule: nonzero; opacity: 1;" vector-effect="non-scaling-stroke"  cx="0" cy="0" r="35" />
</g>
<g transform="matrix(2.06 0 0 2.3 439.56 427.45)" id="957bc37b-8539-493e-a5ad-e3554ce89859"  >
<circle style="stroke: rgb(0,0,0); stroke-width: 7; stroke-dasharray: none; stroke-linecap: butt; stroke-dashoffset: 0; stroke-linejoin: miter; stroke-miterlimit: 4; fill: rgb(255,255,255); fill-rule: nonzero; opacity: 1;" vector-effect="non-scaling-stroke"  cx="0" cy="0" r="35" />
</g>
<g transform="matrix(0.44 0 0 0.44 432.68 426.45)" id="957bc37b-8539-493e-a5ad-e3554ce89859"  >
<circle style="stroke: rgb(255,255,255); stroke-width: 0; stroke-dasharray: none; stroke-linecap: butt; stroke-dashoffset: 0; stroke-linejoin: miter; stroke-miterlimit: 4; fill: rgb(0,0,0); fill-rule: nonzero; opacity: 1;" vector-effect="non-scaling-stroke"  cx="0" cy="0" r="35" />
</g>
</svg>